HIERARCHY
ROOT simHips
{
  OFFSET -150.094 99.6375 98.6872
  CHANNELS 6 Xposition Yposition Zposition Zrotation Xrotation Yrotation
  JOINT simSpine
  {
    OFFSET -0.000355721 21.3001 -0.016921
    CHANNELS 3 Zrotation Xrotation Yrotation
    JOINT simLeftArm
    {
      OFFSET 13.5181 21.3012 0
      CHANNELS 3 Zrotation Xrotation Yrotation
      JOINT simLeftForeArm
      {
        OFFSET 24.5783 0 0
        CHANNELS 3 Zrotation Xrotation Yrotation
        JOINT simLeftHand
        {
          OFFSET 24.5783 0 0
          CHANNELS 3 Zrotation Xrotation Yrotation
          End Site
          {
            OFFSET 7.32568 1.52588e-05 0.0169305
          }
        }
      }
    }
    JOINT simHead
    {
      OFFSET 0 27.4458 -0.00489235
      CHANNELS 3 Zrotation Xrotation Yrotation
      End Site
      {
        OFFSET 0 0 0
      }
    }
    JOINT simRightArm
    {
      OFFSET -13.5174 21.3012 0
      CHANNELS 3 Zrotation Xrotation Yrotation
      JOINT simRightForeArm
      {
        OFFSET -24.5783 0 0
        CHANNELS 3 Zrotation Xrotation Yrotation
        JOINT simRightHand
        {
          OFFSET -24.5783 0 0
          CHANNELS 3 Zrotation Xrotation Yrotation
          End Site
          {
            OFFSET -7.32568 1.52588e-05 0.0169305
          }
        }
      }
    }
  }
  JOINT simRightUpLeg
  {
    OFFSET -8.44614 -9.41038 0.835684
    CHANNELS 3 Zrotation Xrotation Yrotation
    JOINT simRightLeg
    {
      OFFSET 0 -40.9639 0
      CHANNELS 3 Zrotation Xrotation Yrotation
      JOINT simRightFoot
      {
        OFFSET 0 -40.9639 0
        CHANNELS 3 Zrotation Xrotation Yrotation
        End Site
        {
          OFFSET 0.50614 -9.67405 14.6709
        }
      }
    }
  }
  JOINT simLeftUpLeg
  {
    OFFSET 8.44614 -9.41038 0.835684
    CHANNELS 3 Zrotation Xrotation Yrotation
    JOINT simLeftLeg
    {
      OFFSET 0 -40.9639 0
      CHANNELS 3 Zrotation Xrotation Yrotation
      JOINT simLeftFoot
      {
        OFFSET 0 -40.9639 0
        CHANNELS 3 Zrotation Xrotation Yrotation
        End Site
        {
          OFFSET -0.50614 -9.67405 14.6709
        }
      }
    }
  }
}
MOTION
Frames:	26
Frame Time:	0.0333333
-150.094 99.6375 98.6872 -0.248167 0.323537 -0.0536837 0.516172 -0.943528 -0.0747911 6.55384 -3.76924 0.103912 -1.91919 -0.275477 -0.000162456 -1.38368 2.29525 -0.337565 0.0864316 -2.63709 7.86925 -4.03962 -2.08972 -0.587789 1.27276 0.0203584 0.000191669 1.45643 -0.813804 -0.0727275 5.16939 -0.0706326 0.129775 -0.375181 0.0375716 -0.0193283 -4.15315 -1.13428 -0.0376368 -2.73793 -1.58754 -0.874568 0.404689 2.28604 0.0107551 2.93171 -1.52548 0.871499 
-150.094 99.6366 98.7295 -0.248071 0.345879 -0.0661925 0.487913 -0.931349 -0.0675924 6.58615 -3.69192 0.160522 -1.92454 -0.275477 -0.000162456 -1.40544 2.18281 -0.383662 0.114629 -2.62535 7.81969 -4.04197 -2.11581 -0.602633 1.32142 0.0203584 0.000191669 1.49996 -0.838835 -0.0513576 5.16929 -0.0428112 0.0821096 -0.396083 -0.000592188 -0.0193283 -4.12023 -1.14172 0.0277823 -2.76072 -1.58754 -0.856103 0.446728 2.32372 0.0107554 2.91938 -1.59672 0.852907 
-150.094 99.6365 98.7773 -0.248047 0.377273 -0.0643629 0.485559 -0.955319 -0.0541765 6.59406 -3.68125 0.148217 -1.95233 -0.275477 -0.000162456 -1.31116 2.14758 -0.411083 0.146144 -2.62747 7.82476 -4.03205 -2.04527 -0.65296 1.33027 0.0203584 0.000191669 1.5788 -0.899694 -0.0974243 5.16933 -0.108216 0.0555877 -0.400511 0.111706 -0.0193284 -4.13565 -1.21752 0.0414651 -2.77285 -1.57755 -0.844628 0.469422 2.29907 0.0107552 2.88354 -1.62263 0.823637 
-150.095 99.6367 98.8219 -0.248161 0.38709 -0.0458358 0.456896 -0.938333 -0.0823286 6.61383 -3.74489 0.149104 -1.9582 -0.275477 -0.000162456 -1.32947 2.21321 -0.416958 0.172719 -2.60956 7.80347 -3.99605 -2.09075 -0.664193 1.34653 0.0203584 0.000191669 1.51544 -0.970985 -0.0338068 5.16917 -0.0777712 -0.0432583 -0.395682 0.0909195 -0.0193283 -4.14018 -1.25144 0.115975 -2.78217 -1.58776 -0.780102 0.470005 2.35082 0.0107556 2.91813 -1.67434 0.750649 
-150.095 99.6366 98.8667 -0.248102 0.411407 -0.051388 0.437063 -0.940121 -0.0791539 6.62435 -3.7308 0.192353 -1.93062 -0.275477 -0.000162456 -1.39343 2.21052 -0.348754 0.226677 -2.6182 7.942 -3.96053 -2.16759 -0.645938 1.32374 0.0203584 0.000191669 1.54003 -0.876968 -0.0689535 5.16932 -0.0497258 0.099801 -0.412654 0.052051 -0.0193283 -4.15891 -1.23393 -0.00470661 -2.7677 -1.57862 -0.756776 0.439321 2.34083 0.0107555 2.9132 -1.69606 0.748593 
-150.096 99.6365 98.9084 -0.245684 0.406722 -0.0498033 0.415586 -0.914368 -0.0733988 6.65243 -3.73821 0.193646 -1.91968 -0.275477 -0.000162456 -1.31049 2.25413 -0.366662 0.206751 -2.55568 7.86193 -3.93218 -2.07392 -0.624671 1.30173 0.0203584 0.000191669 1.55902 -0.932059 -0.0885291 5.16922 0.00771299 0.101172 -0.411294 -0.000386179 -0.0193283 -4.13428 -1.24899 -0.0352391 -2.78747 -1.52818 -0.785554 0.471783 2.30333 0.0107552 2.93939 -1.70468 0.773666 
-150.098 99.6366 98.9495 -0.243374 0.412041 -0.0649668 0.403777 -0.924157 -0.0696844 6.69513 -3.6825 0.172358 -1.91998 -0.275477 -0.000162456 -1.31475 2.21327 -0.349149 0.215456 -2.57882 7.91196 -3.9392 -2.00607 -0.567396 1.31903 0.0203584 0.000191669 1.56363 -0.963854 -0.07432 5.16914 0.0526982 0.102291 -0.416925 -0.0521773 -0.0193283 -4.12496 -1.25075 -0.0232723 -2.7717 -1.4979 -0.761577 0.442232 2.29944 0.0107552 2.95248 -1.74332 0.779559 
-150.111 99.6366 98.9775 -0.235086 0.402579 -0.0418973 0.3789 -0.900708 -0.0628953 6.74602 -3.60581 0.191517 -1.89422 -0.275477 -0.000162456 -1.34672 2.26895 -0.374371 0.225745 -2.50624 7.91897 -3.95326 -1.99319 -0.548989 1.31747 0.0203584 0.000191669 1.5309 -1.01115 -0.0449276 5.16874 0.012793 0.016115 -0.419323 0.0791094 -0.0193283 -4.15657 -1.31041 0.048268 -2.76678 -1.45867 -0.723123 0.432024 2.27374 0.010755 2.9557 -1.73704 0.712711 
-150.119 99.6367 99.0174 -0.218556 0.398785 -0.0444044 0.34901 -0.906189 -0.0555116 6.78929 -3.5175 0.14176 -1.90016 -0.275477 -0.000162456 -1.33453 2.23159 -0.382117 0.222606 -2.36536 7.89366 -3.97027 -1.94339 -0.507016 1.29744 0.0203584 0.000191669 1.55027 -0.994279 -0.0654572 5.15286 0.0434238 0.0853096 -0.404782 0.0882106 -0.0193283 -4.17159 -1.3471 -0.0326657 -2.80182 -1.4407 -0.712102 0.472979 2.29913 0.0107552 2.91485 -1.78368 0.717676 
-150.129 99.6365 99.0601 -0.205488 0.382191 -0.0376596 0.334572 -0.919592 -0.0502851 6.82366 -3.46809 0.0822752 -1.89137 -0.275477 -0.000162456 -1.34668 2.20814 -0.4057 0.203387 -2.15467 7.89879 -4.0751 -1.91639 -0.423381 1.34872 0.0203584 0.000191669 1.5416 -0.873757 0.0566859 5.1504 0.13606 0.136858 -0.420951 -7.03205e-05 -0.0193283 -4.16 -1.33835 -0.0884064 -2.79031 -1.37893 -0.872004 0.430479 2.27404 0.010755 2.93032 -1.77659 0.872933 
-150.14 99.6361 99.1011 -0.202338 0.365935 -0.0193425 0.347611 -0.946828 -0.0283215 6.82043 -3.4424 0.0161187 -1.84601 -0.275477 -0.000162456 -1.24837 2.16733 -0.365331 0.131078 -1.90685 7.84901 -4.17612 -1.94179 -0.394374 1.3374 0.0203584 0.000191669 1.50264 -0.814622 0.0489578 5.16303 0.183449 0.142247 -0.426973 -0.000330429 -0.0193283 -4.20717 -1.33998 -0.123202 -2.80515 -1.35274 -0.873911 0.479526 2.30724 0.0107552 2.93032 -1.80719 0.842478 
-150.148 99.6368 99.1376 -0.199474 0.330211 -0.0054836 0.347187 -0.905982 -0.0353201 6.80397 -3.38046 0.0345995 -1.79657 -0.275477 -0.000162456 -1.23681 2.1159 -0.445202 0.0979497 -1.79258 7.8033 -4.26859 -1.92881 -0.382718 1.28076 0.0203584 0.000191669 1.42687 -0.824651 0.0108822 5.15184 0.202871 0.117025 -0.407733 0.0786565 -0.0193283 -4.16706 -1.40833 -0.126394 -2.78255 -1.28384 -0.905158 0.425556 2.29902 0.0107552 2.97343 -1.83079 0.86401 
-150.156 99.6359 99.1724 -0.205228 0.314579 0.0149683 0.367509 -0.887382 -0.0410563 6.79255 -3.34356 0.0245526 -1.8305 -0.275477 -0.000162456 -1.23604 2.15342 -0.464871 0.096366 -1.71454 7.7964 -4.37048 -1.95712 -0.38878 1.24551 0.0203224 0.000191669 1.41726 -0.839373 0.0312117 5.17462 0.272021 -0.0115 -0.426204 0.000177797 -0.0193283 -4.20088 -1.34607 -0.0188131 -2.79257 -1.25606 -0.933702 0.465511 2.33067 0.0107554 2.91359 -1.87262 0.872967 
-150.163 99.6372 99.1979 -0.18763 0.303675 0.0582229 0.349748 -0.87059 -0.0609393 6.77316 -3.35328 0.0430817 -1.84609 -0.275477 -0.000162456 -1.3067 2.13043 -0.406884 0.189449 -1.69021 7.78934 -4.41447 -1.95103 -0.409001 1.2216 0.0204967 0.000191669 1.47005 -1.00531 0.0413065 5.14168 0.312676 0.0925108 -0.388835 -0.000678732 -0.0193283 -4.2024 -1.38967 -0.171408 -2.81104 -1.19309 -1.02618 0.463875 2.25488 0.0107549 2.96516 -1.82855 0.927833 
-150.176 99.6375 99.2277 -0.177022 0.313134 0.0811709 0.333469 -0.879636 -0.0922196 6.76202 -3.51146 0.0789128 -1.86122 -0.275477 -0.000162456 -1.35992 2.1973 -0.414836 0.271755 -1.70326 7.76371 -4.44816 -2.01708 -0.376485 1.25005 0.0207235 0.000191669 1.46967 -0.958862 0.0416015 5.14492 0.306608 0.0599334 -0.396147 0.0273998 -0.0193283 -4.21367 -1.40919 -0.172247 -2.79397 -1.23536 -0.976777 0.40991 2.34071 0.0107555 2.98489 -1.86422 0.860257 
-150.195 99.6369 99.2446 -0.173996 0.345368 0.116611 0.313268 -0.87603 -0.098553 6.74936 -3.52863 0.120206 -1.85577 -0.276254 -0.000162456 -1.32608 2.20743 -0.403291 0.292098 -1.79029 7.64951 -4.44909 -2.08056 -0.406819 1.26958 0.0208453 0.000191669 1.41014 -0.943812 0.0226553 5.18242 0.274751 -0.0604902 -0.444034 0.0280267 -0.0193283 -4.23068 -1.41368 -0.0909489 -2.78031 -1.2662 -0.988665 0.407735 2.35424 0.0107556 2.93638 -1.87243 0.866749 
-150.197 99.6385 99.2693 -0.171138 0.355252 0.104736 0.317874 -0.875694 -0.0630683 6.72039 -3.53034 0.133605 -1.86838 -0.277165 -0.000162456 -1.34066 2.20949 -0.416363 0.246909 -1.90364 7.53093 -4.4331 -2.12935 -0.447581 1.25694 0.0207042 0.000191669 1.44072 -0.991706 0.0385187 5.16497 0.311347 0.0498831 -0.423305 -0.0283454 -0.0193283 -4.25678 -1.37469 -0.157683 -2.78064 -1.22827 -1.02565 0.443792 2.30167 0.0107552 2.92314 -1.86561 0.90078 
-150.217 99.6392 99.2766 -0.16386 0.352613 0.123995 0.285823 -0.831237 -0.0628518 6.72978 -3.58969 0.135595 -1.90189 -0.27811 -0.000162456 -1.38884 2.24495 -0.457514 0.233214 -2.01962 7.51683 -4.38912 -2.23198 -0.445955 1.27482 0.0201427 0.000191669 1.49046 -1.02938 -0.0355503 5.17164 0.306233 -0.0529078 -0.425613 -0.000322676 -0.0193283 -4.25808 -1.40447 -0.0800831 -2.78555 -1.21289 -1.03589 0.432635 2.27607 0.010755 2.94707 -1.84023 0.883624 
-150.217 99.6397 99.2919 -0.159299 0.36862 0.0915424 0.291165 -0.859252 -0.0248252 6.70542 -3.63992 0.101397 -1.93312 -0.278988 -0.000162456 -1.32209 2.29456 -0.408724 0.22135 -2.11808 7.64759 -4.36327 -2.21936 -0.409384 1.31164 0.0190031 0.000191669 1.4979 -1.05972 0.00064582 5.17614 0.236539 0.00230246 -0.437805 0.12485 -0.0193284 -4.23773 -1.4844 -0.12697 -2.79157 -1.24114 -1.0163 0.426186 2.32494 0.0107554 2.9498 -1.86951 0.9036 
-150.229 99.6404 99.2937 -0.162405 0.381968 0.101193 0.276549 -0.823976 -0.0434731 6.71906 -3.68856 0.157907 -1.91546 -0.279699 -0.000162456 -1.39455 2.23983 -0.462875 0.189647 -2.18757 7.71047 -4.32924 -2.25848 -0.362408 1.33745 0.0162342 0.000191669 1.52117 -0.995777 0.0566379 5.18459 0.272806 -0.0200239 -0.435877 0.0276858 -0.0193283 -4.27324 -1.41285 -0.0869887 -2.79842 -1.24726 -1.00114 0.472793 2.31182 0.0107553 2.91699 -1.88028 0.865963 
-150.247 99.6442 99.2871 -0.144203 0.376053 0.11655 0.236944 -0.777405 -0.0370775 6.7235 -3.73706 0.125347 -1.88998 -0.280142 -0.000162456 -1.3088 2.18271 -0.424408 0.148455 -2.23858 7.65003 -4.30056 -2.28557 -0.362347 1.33121 0.0146213 0.000191669 1.49896 -0.97588 0.0253403 5.14035 0.262169 0.174192 -0.363677 0.0624543 -0.0193283 -4.27607 -1.42403 -0.315552 -2.77866 -1.25338 -1.04544 0.419137 2.32653 0.0107554 2.9429 -1.87892 0.88265 
-150.258 99.6432 99.2798 -0.153054 0.360928 0.142735 0.235683 -0.745336 -0.020987 6.74884 -3.68401 0.0693922 -1.88922 -0.280217 -0.000162456 -1.30085 2.17977 -0.472969 0.158043 -2.29209 7.74291 -4.32967 -2.30867 -0.374888 1.35092 0.0132209 0.000191669 1.48588 -0.945482 0.0557069 5.17941 0.291824 -0.0382741 -0.408901 -0.000212678 -0.0193283 -4.23128 -1.41497 -0.148459 -2.77261 -1.244 -1.0612 0.432382 2.3264 0.0107554 2.88658 -1.86731 0.891603 
-150.267 99.6448 99.2734 -0.154175 0.39796 0.170846 0.218012 -0.757378 -0.0325759 6.76247 -3.61262 0.0119971 -1.88274 -0.280362 -0.000162456 -1.32692 2.22517 -0.471069 0.201925 -2.23807 7.79176 -4.34216 -2.29351 -0.357301 1.33398 0.0120148 0.000191669 1.45305 -0.996918 0.0425067 5.17051 0.261937 0.0636423 -0.397586 -0.000796404 -0.0193283 -4.28661 -1.37601 -0.224276 -2.76625 -1.29669 -1.08703 0.420875 2.33292 0.0107554 2.88289 -1.8396 0.882297 
-150.279 99.6454 99.2694 -0.153174 0.422761 0.17915 0.20385 -0.756567 -0.0411322 6.77831 -3.67188 -0.0542977 -1.86764 -0.280812 -0.000162456 -1.31322 2.22496 -0.473726 0.237259 -2.14443 7.81766 -4.38352 -2.38675 -0.300524 1.34859 0.0109845 0.000191669 1.49401 -0.897917 0.120543 5.19001 0.180404 0.0393344 -0.40607 0.0974923 -0.020674 -4.32191 -1.39954 -0.212826 -2.75951 -1.30221 -1.02657 0.441933 2.281 0.010755 2.88594 -1.8143 0.810226 
-150.288 99.6452 99.2515 -0.151363 0.415699 0.196299 0.197019 -0.696893 -0.0463732 6.75543 -3.69361 -0.080001 -1.81903 -0.281162 -0.000162456 -1.25737 2.1432 -0.473856 0.218938 -2.12192 7.75063 -4.44723 -2.48665 -0.2574 1.34297 0.0101117 0.000191669 1.5074 -0.905167 0.108151 5.20993 0.197626 -0.0778962 -0.432881 0.0400349 -0.0226992 -4.29597 -1.37486 -0.112314 -2.76657 -1.34571 -0.997883 0.464865 2.36718 0.0107557 2.87304 -1.85124 0.767863 
-150.3 99.6469 99.2328 -0.135735 0.370563 0.195784 0.166201 -0.628454 -0.0495401 6.75382 -3.58922 -0.102101 -1.80912 -0.281009 -0.000162456 -1.2992 2.18273 -0.461948 0.199681 -2.15753 7.67534 -4.47277 -2.37003 -0.23559 1.29639 0.00937805 0.000191669 1.53705 -0.883696 0.111422 5.18597 0.221879 0.0443109 -0.399324 0.0810932 -0.0248944 -4.3284 -1.37502 -0.241048 -2.77617 -1.25934 -0.937119 0.475356 2.26776 0.0107549 2.8332 -1.80502 0.701723 
